# xmcd
#
# Track frame offsets:
#	200
#	13410
#	36175
#	50627
#	67657
#	79647
#	101085
#	112297
#	123315
#	132155
#	143352
#	156555
#
# Disc length: 2295
#
# Revision: 2
# Processed by: cddbd v1.5.1PL0 Copyright (c) Steve Scherf et al.
# Submitted via: audiograbber 1.81.02
# Normalized: r0:TDELIM( - ),TSWAP
#
DISCID=a508f50c
DTITLE=Various Artist - Blues Classics Vol. One
DYEAR=1900
DGENRE=Blues
TTITLE0=John Lee Hooker - I Want To Hug You
TTITLE1=Lightnin' Hopkins - I'll Be Gone
TTITLE2=Billy Boy Arnold - I Wish You Would
TTITLE3=Ike and Tina Turner - I Smell Trouble
TTITLE4=Jimmy Reed - Honest I Do
TTITLE5=Lightnin' Hopkins - Shake It Baby
TTITLE6=Eric Clapton - Dragging My Tail
TTITLE7=John Lee Hooker - Send Me Your Pillow
TTITLE8=Magic Sam - Please Be Cool
TTITLE9=John Lee Hooker - Boom Boom Boom
TTITLE10=Elmore James - Dust My Broom
TTITLE11=Screamin' Jay Hawkins - I'll Put A Spell On You
EXTD=
EXTT0=
EXTT1=
EXTT2=
EXTT3=
EXTT4=
EXTT5=
EXTT6=
EXTT7=
EXTT8=
EXTT9=
EXTT10=
EXTT11=
PLAYORDER=
